<svg width="512" height="512" xmlns="http://www.w3.org/2000/svg">

 <g>
  <title>background</title>
  <rect fill="none" id="canvas_background" height="402" width="582" y="-1" x="-1"/>
 </g>
 <g>
  <title>Layer 1</title>
  <g id="svg_1">
   <g id="svg_2">
    <g id="svg_3">
     <path fill-opacity="0.71" id="svg_4" fill="#2A2C2B" class="active-path" d="m256,0c-141.167,0 -256,114.844 -256,256s114.833,256 256,256s256,-114.844 256,-256s-114.833,-256 -256,-256zm101.771,264.969l-149.333,96c-1.75,1.135 -3.771,1.698 -5.771,1.698c-1.75,0 -3.521,-0.438 -5.104,-1.302c-3.438,-1.875 -5.563,-5.459 -5.563,-9.365l0,-192c0,-3.906 2.125,-7.49 5.563,-9.365c3.375,-1.854 7.604,-1.74 10.875,0.396l149.333,96c3.042,1.958 4.896,5.344 4.896,8.969s-1.854,7.01 -4.896,8.969z"/>
    </g>
   </g>
  </g>
 </g>
</svg>