<?xml version="1.0" encoding="iso-8859-1"?>
<!-- Generator: Adobe Illustrator 19.0.0, SVG Export Plug-In . SVG Version: 6.00 Build 0)  -->
<svg version="1.1" id="Capa_1" xmlns="http://www.w3.org/2000/svg" xmlns:xlink="http://www.w3.org/1999/xlink" x="0px" y="0px"
	 viewBox="0 0 512 512" style="enable-background:new 0 0 512 512;" xml:space="preserve">
<g>
	<g>
		<path d="M436,211v-31C436,80.748,355.252,0,256,0S76,80.748,76,180v31H46v301h420V211H436z M106,180c0-82.71,67.29-150,150-150
			s150,67.29,150,150v31h-30v-31c0-66.168-53.832-120-120-120s-120,53.832-120,120v31h-30V180z M346,180v31H166v-31
			c0-49.626,40.374-90,90-90C305.626,90,346,130.374,346,180z M436,482H76V241c16.085,0,345.261,0,360,0V482z"/>
	</g>
</g>
<g>
	<g>
		<path d="M319.164,452l-16.146-83.851C311.441,357.593,316,344.675,316,331c0-33.084-26.916-60-60-60s-60,26.916-60,60
			c0,13.675,4.559,26.593,12.982,37.149L192.836,452H319.164z M256,301c16.542,0,30,13.458,30,30c0,8.235-3.354,15.946-9.445,21.713
			l-5.971,5.654L282.836,422h-53.672l12.252-63.633l-5.971-5.654C229.354,346.946,226,339.234,226,331
			C226,314.458,239.458,301,256,301z"/>
	</g>
</g>
<g>
</g>
<g>
</g>
<g>
</g>
<g>
</g>
<g>
</g>
<g>
</g>
<g>
</g>
<g>
</g>
<g>
</g>
<g>
</g>
<g>
</g>
<g>
</g>
<g>
</g>
<g>
</g>
<g>
</g>
</svg>
