<svg xmlns="http://www.w3.org/2000/svg" xmlns:xlink="http://www.w3.org/1999/xlink" version="1.1" style="" xml:space="preserve" width="512" height="512"><rect id="backgroundrect" width="100%" height="100%" x="0" y="0" fill="none" stroke="none"/>
















<g class="currentLayer" style=""><title>Layer 1</title><g id="svg_1" class="selected" fill="#bfa365" fill-opacity="1">
	<g id="svg_2" fill="#bfa365" fill-opacity="1">
		<path d="M508.875,249.61406939792633 l-160,-160 c-3.063,-3.042 -7.615,-3.9690000000000003 -11.625,-2.313 c-3.99,1.6460000000000004 -6.583,5.542 -6.583,9.854 v21.333 c0,2.833 1.125,5.542 3.125,7.542 l109.792,109.792 H10.667 C4.771,235.82306939792633 0,240.59306939792634 0,246.48906939792633 v21.333 c0,5.896 4.771,10.667 10.667,10.667 h432.917 L333.792,388.28106939792633 c-2,2 -3.125,4.708 -3.125,7.542 V417.15606939792633 c0,4.313 2.5940000000000003,8.208 6.583,9.854 c1.323,0.552 2.708,0.8130000000000002 4.083,0.8130000000000002 c2.771,0 5.5,-1.083 7.542,-3.125 l160,-160 C513.042,260.53106939792633 513.042,253.78106939792633 508.875,249.61406939792633 z" id="svg_3" fill="#bfa365" fill-opacity="1"/>
	</g>
</g><g id="svg_4">
</g><g id="svg_5">
</g><g id="svg_6">
</g><g id="svg_7">
</g><g id="svg_8">
</g><g id="svg_9">
</g><g id="svg_10">
</g><g id="svg_11">
</g><g id="svg_12">
</g><g id="svg_13">
</g><g id="svg_14">
</g><g id="svg_15">
</g><g id="svg_16">
</g><g id="svg_17">
</g><g id="svg_18">
</g></g></svg>