<svg height="455pt" viewBox="0 -3 455.1168 455" width="455pt" xmlns="http://www.w3.org/2000/svg"><path d="m449.574219 167.425781c-1.816407-.25-3.648438.316407-5.007813 1.542969l-61.96875 55.089844h-79.246094l-59.488281 72.703125c-1.164062 1.417969-1.671875 3.261719-1.394531 5.074219.265625 1.808593 1.289062 3.417968 2.816406 4.421874 2.730469 1.839844 6.402344 1.347657 8.550782-1.144531l53.722656-62.65625v205.601563h24v-112h16v112h24v-195.535156l81.503906-74.066407c2.296875-2.109375 2.722656-5.578125 1-8.183593-1-1.566407-2.644531-2.609376-4.488281-2.847657zm0 0"/><path d="m209.796875 306.28125c1.535156-1.007812 2.570313-2.621094 2.847656-4.433594.277344-1.816406-.226562-3.664062-1.390625-5.085937l-59.488281-72.703125h-79.246094l-61.976562-55.097656c-1.371094-1.207032-3.195313-1.769532-5.007813-1.53125-1.8125.234374-3.4375 1.242187-4.449218 2.765624-1.757813 2.617188-1.347657 6.121094.96875 8.261719l81.503906 74.066407v195.535156h24v-112h16v112h24v-205.601563l53.71875 62.679688c2.140625 2.484375 5.800781 2.972656 8.519531 1.144531zm0 0"/><path d="m331.558594 96.058594h92.183594l-12.800782-32 12.800782-32h-68.183594v48h-24zm0 0"/><path d="m243.558594.0585938h96v64.0000002h-96zm0 0"/><path d="m363.558594 184.058594c0 13.253906-10.746094 24-24 24s-24-10.746094-24-24 10.746094-24 24-24 24 10.746094 24 24zm0 0"/><path d="m132.582031 167.03125c-9.316406-9.320312-24.496093-9.25-33.898437.152344-9.40625 9.402344-9.472656 24.582031-.15625 33.902344 9.320312 9.320312 24.5 9.25 33.902344-.152344 9.40625-9.40625 9.472656-24.582032.152343-33.902344zm0 0"/><path d="m219.558594.0585938h8v384.0000002h-8zm0 0"/></svg>